<svg width="995" height="258" viewBox="0 0 995 258" fill="none" xmlns="http://www.w3.org/2000/svg">
<path d="M217.556 92.4045V189.406C217.556 193.989 213.83 197.712 209.244 197.712H192.538C187.952 197.712 184.226 193.989 184.226 189.406V92.4045C184.226 89.4788 181.852 87.1258 178.944 87.1258H149.975C145.062 87.1258 141.069 83.1361 141.069 78.2257V68.9164C141.069 64.006 145.062 60.0163 149.975 60.0163H251.951C256.864 60.0163 260.857 64.006 260.857 68.9164V78.2257C260.857 83.1361 256.864 87.1258 251.951 87.1258H222.879C219.931 87.1054 217.556 89.4788 217.556 92.4045Z" fill="#3200C1"></path>
<path d="M287.349 179.913C272.956 166.368 265.709 149.284 265.709 128.803C265.709 108.323 272.956 91.2386 287.349 77.6941C301.741 64.1495 319.758 57.4182 341.398 57.4182C362.833 57.4182 380.849 64.2518 395.221 77.7964C409.614 91.4432 416.861 108.425 416.861 128.803C416.861 149.182 409.614 166.143 395.221 179.81C380.829 193.457 362.812 200.291 341.398 200.291C319.758 200.291 301.741 193.478 287.349 179.913ZM341.398 170.399C353.088 170.399 363.038 166.47 371.104 158.614C379.068 150.757 383.121 140.813 383.121 128.824C383.121 116.814 379.088 106.891 371.104 99.0339C363.038 91.2795 353.088 87.3512 341.398 87.3512C329.708 87.3512 319.758 91.2795 311.691 99.0339C303.625 106.891 299.571 116.834 299.571 128.824C299.571 140.813 303.604 150.757 311.691 158.614C319.758 166.47 329.708 170.399 341.398 170.399Z" fill="#3200C1"></path>
<path d="M453.446 179.81C439.054 166.163 431.909 149.182 431.909 128.803C431.909 108.425 439.054 91.4432 453.446 77.7964C467.736 64.2518 485.548 57.4182 506.758 57.4182C518.346 57.4182 529.114 59.7915 539.167 64.5587C545.206 67.4845 550.652 71.0036 555.504 75.1775C560.643 79.5764 560.663 87.5354 555.525 91.9138L548.482 97.9291C544.838 101.039 539.535 100.814 535.891 97.6836C527.845 90.7885 518.12 87.3308 506.758 87.3308C495.17 87.3308 485.425 91.2591 477.461 99.0135C469.497 106.87 465.546 116.814 465.546 128.803C465.546 140.793 469.477 150.736 477.461 158.593C485.425 166.45 495.17 170.378 506.758 170.378C518.653 170.378 528.766 166.573 537.017 159.023C539.924 156.363 544.326 156.22 547.335 158.777L557.777 167.637C561.503 170.808 561.789 176.578 558.268 179.953C545.001 192.659 526.965 200.291 506.348 200.291C485.425 200.291 467.839 193.478 453.446 179.81Z" fill="#3200C1"></path>
<path d="M651.808 92.4046V189.406C651.808 193.989 648.082 197.713 643.496 197.713H626.79C622.204 197.713 618.478 193.989 618.478 189.406V92.4046C618.478 89.4788 616.103 87.1259 613.196 87.1259H584.227C579.314 87.1259 575.321 83.1362 575.321 78.2257V68.9164C575.321 64.006 579.314 60.0163 584.227 60.0163H686.203C691.116 60.0163 695.109 64.006 695.109 68.9164V78.2257C695.109 83.1362 691.116 87.1259 686.203 87.1259H657.131C654.183 87.1054 651.808 89.4788 651.808 92.4046Z" fill="#3200C1"></path>
<path d="M721.601 179.913C707.208 166.368 699.961 149.284 699.961 128.803C699.961 108.323 707.208 91.2386 721.601 77.6941C735.993 64.1495 754.01 57.4182 775.65 57.4182C797.085 57.4182 815.101 64.2518 829.473 77.7964C843.866 91.4432 851.113 108.425 851.113 128.803C851.113 149.182 843.866 166.143 829.473 179.81C815.081 193.457 797.064 200.291 775.65 200.291C754.01 200.291 735.993 193.478 721.601 179.913ZM775.65 170.399C787.34 170.399 797.29 166.47 805.356 158.614C813.32 150.757 817.373 140.813 817.373 128.824C817.373 116.814 813.34 106.891 805.356 99.0339C797.29 91.2795 787.34 87.3512 775.65 87.3512C763.959 87.3512 754.01 91.2795 745.943 99.0339C737.877 106.891 733.823 116.834 733.823 128.824C733.823 140.813 737.856 150.757 745.943 158.614C754.01 166.47 763.939 170.399 775.65 170.399Z" fill="#3200C1"></path>
<path d="M887.698 179.81C873.306 166.163 866.161 149.182 866.161 128.803C866.161 108.425 873.306 91.4432 887.698 77.7964C901.988 64.2518 919.8 57.4182 941.01 57.4182C952.598 57.4182 963.366 59.7915 973.419 64.5587C979.458 67.4845 984.904 71.0036 989.756 75.1775C994.895 79.5764 994.915 87.5354 989.776 91.9138L982.734 97.9291C979.09 101.039 973.787 100.814 970.143 97.6836C962.097 90.7885 952.372 87.3308 941.01 87.3308C929.422 87.3308 919.677 91.2591 911.713 99.0135C903.749 106.87 899.798 116.814 899.798 128.803C899.798 140.793 903.729 150.736 911.713 158.593C919.677 166.45 929.422 170.378 941.01 170.378C952.905 170.378 963.018 166.573 971.269 159.023C974.176 156.363 978.578 156.22 981.587 158.777L992.028 167.637C995.755 170.808 996.041 176.578 992.52 179.953C979.253 192.659 961.217 200.291 940.6 200.291C919.677 200.291 902.07 193.478 887.698 179.81Z" fill="#3200C1"></path>
<path d="M91.3199 131.854C94.0633 122.647 88.8017 112.949 79.5889 110.207L22.3874 93.2254C13.1746 90.4837 3.47037 95.742 0.72699 104.949C-2.01639 114.156 3.24517 123.854 12.458 126.596L69.6595 143.578C78.8928 146.319 88.5766 141.061 91.3199 131.854Z" fill="#37FFDB"></path>
<path d="M96.9091 176.171C92.2617 167.741 81.6772 164.693 73.2628 169.316L40.5265 187.342C32.0916 191.986 29.0411 202.564 33.668 210.973C38.3154 219.403 48.8999 222.451 57.3143 217.827L90.0506 199.802C98.4855 195.178 101.556 184.6 96.9091 176.171Z" fill="#37FFDB"></path>
<path d="M88.8838 87.8034C95.0257 95.1895 106.02 96.192 113.41 90.054C120.801 83.9159 121.804 72.9289 115.662 65.5428L66.3021 6.27003C60.1602 -1.11605 49.1662 -2.11858 41.7755 4.01944C34.3847 10.1575 33.3815 21.1445 39.5234 28.5306L88.8838 87.8034Z" fill="#37FFDB"></path>
<path d="M123.729 209.214C114.679 205.981 104.709 210.707 101.474 219.751L96.2129 234.461C92.9781 243.505 97.6869 253.469 106.756 256.702C115.805 259.934 125.776 255.228 129.011 246.165L134.272 231.454C137.507 222.41 132.798 212.467 123.729 209.214Z" fill="#37FFDB"></path>
</svg>